<svg width="363" height="393" viewBox="0 0 363 393" fill="none" xmlns="http://www.w3.org/2000/svg">
<path fill-rule="evenodd" clip-rule="evenodd" d="M309.534 59.9032C209.476 55.8986 153.55 55.7824 53.5336 59.9032C27.0464 60.9946 7.27777 81.451 5.53361 107.903C1.0383 176.08 0.341125 214.13 5.53361 283.903C7.50101 310.34 27.0648 330.432 53.5336 331.903C152.863 337.425 208.672 337.688 309.534 331.903C336 330.385 355.544 310.338 357.534 283.903C362.544 217.322 362.038 178.966 357.534 107.903C355.857 81.4467 336.022 60.9634 309.534 59.9032Z" fill="#EB1000"/>
<path d="M168.534 242.903C201.671 242.903 228.534 216.04 228.534 182.903C228.534 149.766 201.671 122.903 168.534 122.903C135.397 122.903 108.534 149.766 108.534 182.903C108.534 216.04 135.397 242.903 168.534 242.903Z" stroke="white" stroke-width="24"/>
<path d="M213.534 227.903L253.534 267.903" stroke="white" stroke-width="24" stroke-linecap="round"/>
</svg>
